<svg width="25" height="25" viewBox="0 0 25 25" fill="#FF0000" xmlns="http://www.w3.org/2000/svg">
<path d="M18.3459 23.0581H6.76591C4.02591 23.0581 1.80591 20.8281 1.80591 18.0881V10.6781C1.80591 9.31808 2.64591 7.60808 3.72591 6.76808L9.11591 2.56808C10.7359 1.30808 13.3259 1.24808 15.0059 2.42808L21.1859 6.75808C22.3759 7.58808 23.3059 9.36808 23.3059 10.8181V18.0981C23.3059 20.8281 21.0859 23.0581 18.3459 23.0581ZM10.0359 3.74808L4.64591 7.94808C3.93591 8.50808 3.30591 9.77808 3.30591 10.6781V18.0881C3.30591 19.9981 4.85591 21.5581 6.76591 21.5581H18.3459C20.2559 21.5581 21.8059 20.0081 21.8059 18.0981V10.8181C21.8059 9.85808 21.1159 8.52808 20.3259 7.98808L14.1459 3.65808C13.0059 2.85808 11.1259 2.89808 10.0359 3.74808Z" fill="currentColor"/>
<path d="M12.5559 19.0581C12.1459 19.0581 11.8059 18.7181 11.8059 18.3081V15.3081C11.8059 14.8981 12.1459 14.5581 12.5559 14.5581C12.9659 14.5581 13.3059 14.8981 13.3059 15.3081V18.3081C13.3059 18.7181 12.9659 19.0581 12.5559 19.0581Z" fill="currentColor"/>
</svg>
